<svg width="260" height="64" viewBox="0 0 260 64" fill="none" xmlns="http://www.w3.org/2000/svg">
<path d="M76.432 29.904C76.384 29.76 76.32 29.632 76.24 29.472C76.16 29.328 76.048 29.184 75.936 29.04C75.808 28.912 75.664 28.784 75.472 28.672C75.296 28.56 75.072 28.48 74.816 28.4C74.56 28.336 74.272 28.304 73.92 28.304C73.776 28.304 73.6 28.32 73.408 28.352C73.216 28.4 73.008 28.464 72.8 28.56C72.592 28.672 72.384 28.816 72.176 28.992C71.984 29.168 71.792 29.408 71.648 29.696C71.472 30 71.344 30.352 71.248 30.768C71.152 31.184 71.104 31.68 71.104 32.256C71.104 32.88 71.168 33.424 71.296 33.92C71.424 34.416 71.616 34.832 71.856 35.168C72.096 35.504 72.4 35.76 72.752 35.936C73.088 36.112 73.488 36.208 73.92 36.208C74.432 36.208 74.832 36.128 75.152 35.984C75.472 35.824 75.728 35.632 75.92 35.408C76.112 35.184 76.256 34.944 76.336 34.704C76.432 34.464 76.512 34.24 76.56 34.064H78.944C78.816 34.784 78.608 35.408 78.304 35.936C78 36.464 77.632 36.896 77.2 37.248C76.768 37.6 76.288 37.856 75.744 38.032C75.2 38.208 74.624 38.288 74.016 38.288C73.168 38.288 72.4 38.144 71.744 37.856C71.088 37.584 70.528 37.168 70.08 36.656C69.632 36.128 69.296 35.488 69.056 34.736C68.816 34 68.704 33.168 68.704 32.256C68.704 31.552 68.768 30.912 68.912 30.336C69.04 29.76 69.232 29.248 69.472 28.8C69.712 28.352 70 27.984 70.336 27.648C70.656 27.328 71.008 27.056 71.408 26.848C71.792 26.64 72.192 26.48 72.624 26.368C73.056 26.272 73.488 26.224 73.92 26.224C74.544 26.224 75.104 26.288 75.584 26.416C76.064 26.56 76.496 26.72 76.864 26.944C77.232 27.168 77.536 27.408 77.792 27.696C78.048 27.984 78.272 28.272 78.432 28.56C78.592 28.864 78.704 29.168 78.8 29.456C78.88 29.76 78.928 30.032 78.944 30.288H76.544L76.432 29.904ZM79.8669 29.488H87.2269V31.28H84.6509V38H82.4429V31.28H79.8669V29.488ZM90.6509 30.704H90.6829C90.8269 30.448 90.9869 30.224 91.1629 30.032C91.3229 29.856 91.5149 29.696 91.7069 29.584C91.9149 29.472 92.1389 29.376 92.3949 29.328C92.6349 29.264 92.9069 29.232 93.2269 29.232C93.4829 29.232 93.7549 29.264 94.0269 29.328C94.2989 29.392 94.5709 29.488 94.8429 29.632C95.0989 29.76 95.3549 29.952 95.5789 30.16C95.8189 30.384 96.0269 30.672 96.2029 30.992C96.3789 31.312 96.5229 31.68 96.6189 32.112C96.7309 32.544 96.7789 33.024 96.7789 33.584C96.7789 34.272 96.7149 34.912 96.5549 35.472C96.4109 36.048 96.1869 36.544 95.8829 36.96C95.5789 37.36 95.2109 37.68 94.7629 37.92C94.2989 38.144 93.7709 38.256 93.1469 38.256C92.9389 38.256 92.7149 38.24 92.5069 38.192C92.2829 38.16 92.0749 38.08 91.8669 37.984C91.6429 37.888 91.4509 37.744 91.2749 37.584C91.0829 37.408 90.9229 37.2 90.7789 36.944H90.7469V41.296H88.5389V29.488H90.6509V30.704ZM92.5709 31.216C92.2189 31.216 91.9149 31.296 91.6749 31.44C91.4349 31.6 91.2429 31.792 91.0989 32.032C90.9389 32.272 90.8429 32.544 90.7629 32.848C90.6989 33.152 90.6669 33.44 90.6669 33.744C90.6669 33.904 90.6669 34.08 90.6989 34.272C90.7149 34.464 90.7469 34.656 90.7949 34.848C90.8589 35.04 90.9229 35.232 91.0189 35.408C91.0989 35.6 91.2109 35.76 91.3549 35.904C91.4989 36.032 91.6749 36.144 91.8669 36.24C92.0589 36.32 92.2989 36.368 92.5709 36.368C92.8429 36.368 93.0829 36.32 93.2749 36.24C93.4669 36.144 93.6429 36.032 93.7869 35.904C93.9149 35.76 94.0429 35.6 94.1389 35.408C94.2189 35.232 94.2829 35.04 94.3469 34.848C94.3949 34.656 94.4269 34.464 94.4589 34.272C94.4749 34.08 94.4749 33.904 94.4749 33.744C94.4749 33.44 94.4429 33.152 94.3789 32.848C94.2989 32.544 94.2029 32.272 94.0589 32.032C93.8989 31.792 93.7069 31.6 93.4669 31.44C93.2109 31.296 92.9229 31.216 92.5709 31.216ZM97.8721 33.744C97.8721 33.088 97.9841 32.48 98.1761 31.936C98.3681 31.376 98.6561 30.896 99.0401 30.496C99.4241 30.096 99.8721 29.792 100.416 29.568C100.96 29.344 101.552 29.232 102.224 29.232C102.912 29.232 103.52 29.344 104.064 29.568C104.608 29.792 105.056 30.096 105.424 30.496C105.792 30.896 106.08 31.376 106.288 31.936C106.48 32.48 106.576 33.088 106.576 33.744C106.576 34.4 106.48 35.008 106.288 35.552C106.08 36.112 105.792 36.592 105.424 36.992C105.056 37.376 104.608 37.696 104.064 37.92C103.52 38.144 102.912 38.256 102.224 38.256C101.552 38.256 100.96 38.144 100.416 37.92C99.8721 37.696 99.4241 37.376 99.0401 36.992C98.6561 36.592 98.3681 36.112 98.1761 35.552C97.9841 35.008 97.8721 34.4 97.8721 33.744ZM100.176 33.744C100.176 34.064 100.224 34.384 100.288 34.688C100.352 35.008 100.464 35.296 100.64 35.536C100.8 35.792 101.008 36 101.264 36.144C101.52 36.288 101.84 36.368 102.224 36.368C102.624 36.368 102.96 36.288 103.216 36.144C103.472 36 103.68 35.792 103.84 35.552C104 35.312 104.112 35.04 104.176 34.72C104.24 34.4 104.272 34.08 104.272 33.744C104.272 33.408 104.24 33.088 104.176 32.768C104.112 32.448 104 32.16 103.84 31.92C103.68 31.68 103.472 31.488 103.216 31.328C102.96 31.184 102.624 31.12 102.224 31.12C101.84 31.12 101.52 31.2 101.264 31.344C101.008 31.488 100.8 31.696 100.64 31.936C100.464 32.192 100.352 32.464 100.288 32.784C100.224 33.104 100.176 33.424 100.176 33.744ZM110.389 34.736H110.421L113.525 29.488H115.845V38H113.637V32.864H113.605L110.597 38H108.181V29.488H110.389V34.736ZM117.226 29.488H124.586V31.28H122.01V38H119.802V31.28H117.226V29.488ZM127.546 34.432C127.546 34.512 127.562 34.608 127.578 34.736C127.578 34.88 127.61 35.008 127.658 35.168C127.706 35.312 127.786 35.472 127.866 35.616C127.946 35.776 128.074 35.92 128.234 36.032C128.378 36.16 128.554 36.272 128.778 36.336C128.986 36.416 129.242 36.464 129.546 36.464C129.706 36.464 129.866 36.432 130.01 36.384C130.17 36.352 130.298 36.288 130.442 36.192C130.57 36.112 130.682 36 130.778 35.888C130.874 35.76 130.938 35.632 130.986 35.472H133.274C133.274 35.632 133.242 35.808 133.178 36C133.098 36.208 133.002 36.4 132.874 36.608C132.73 36.816 132.554 37.024 132.346 37.216C132.138 37.408 131.898 37.6 131.594 37.744C131.306 37.904 130.986 38.016 130.634 38.112C130.266 38.208 129.866 38.256 129.418 38.256C128.858 38.256 128.314 38.176 127.834 38C127.322 37.84 126.89 37.568 126.522 37.2C126.154 36.832 125.85 36.352 125.642 35.776C125.434 35.184 125.322 34.48 125.322 33.648C125.322 33.072 125.402 32.512 125.562 31.984C125.706 31.44 125.946 30.976 126.266 30.576C126.586 30.16 127.018 29.84 127.53 29.6C128.026 29.344 128.634 29.232 129.354 29.232C130.106 29.232 130.746 29.36 131.258 29.6C131.77 29.856 132.186 30.208 132.506 30.656C132.826 31.104 133.05 31.664 133.178 32.304C133.306 32.944 133.386 33.648 133.386 34.432H127.546ZM131.082 32.96C131.082 32.592 131.034 32.272 130.922 32.016C130.81 31.776 130.666 31.568 130.506 31.424C130.33 31.28 130.138 31.168 129.93 31.104C129.738 31.056 129.546 31.024 129.354 31.024C129.178 31.024 128.97 31.056 128.778 31.104C128.57 31.168 128.378 31.28 128.218 31.424C128.042 31.568 127.898 31.776 127.802 32.016C127.674 32.272 127.626 32.592 127.626 32.96H131.082ZM140.773 31.28H138.149L138.117 32.864C138.085 33.76 138.021 34.544 137.941 35.216C137.845 35.888 137.701 36.448 137.509 36.896C137.301 37.344 137.029 37.68 136.693 37.92C136.357 38.144 135.909 38.256 135.381 38.256C135.125 38.256 134.917 38.24 134.725 38.224C134.533 38.192 134.389 38.144 134.261 38.096V36.24C134.341 36.272 134.437 36.304 134.549 36.336C134.661 36.352 134.789 36.368 134.949 36.368C135.125 36.368 135.269 36.32 135.397 36.208C135.525 36.112 135.637 35.936 135.733 35.664C135.829 35.392 135.893 35.024 135.957 34.544C136.005 34.064 136.037 33.456 136.053 32.704L136.117 29.488H142.965V38H140.773V31.28ZM147.482 32.448H149.738C150.266 32.448 150.746 32.496 151.162 32.608C151.562 32.72 151.914 32.896 152.202 33.12C152.49 33.344 152.714 33.632 152.858 33.984C153.002 34.336 153.082 34.752 153.082 35.232C153.082 35.664 153.018 36.032 152.906 36.336C152.778 36.656 152.618 36.912 152.426 37.104C152.234 37.328 152.01 37.472 151.77 37.6C151.53 37.712 151.29 37.808 151.066 37.856C150.842 37.92 150.618 37.968 150.426 37.984C150.234 38 150.074 38 149.978 38H145.274V29.488H147.482V32.448ZM149.354 36.336C149.53 36.336 149.69 36.32 149.866 36.288C150.026 36.272 150.186 36.208 150.33 36.128C150.458 36.048 150.57 35.936 150.65 35.792C150.746 35.648 150.778 35.456 150.778 35.232C150.778 35.008 150.746 34.832 150.65 34.672C150.57 34.528 150.458 34.416 150.298 34.336C150.154 34.256 149.978 34.192 149.786 34.16C149.594 34.128 149.386 34.112 149.162 34.112H147.482V36.336H149.354ZM156.748 32.56H159.996V29.488H162.204V38H159.996V34.352H156.748V38H154.54V29.488H156.748V32.56ZM166.53 32.448H168.546C169.058 32.448 169.538 32.496 169.954 32.608C170.37 32.72 170.706 32.896 170.994 33.12C171.282 33.344 171.506 33.632 171.65 33.984C171.81 34.336 171.89 34.752 171.89 35.232C171.89 35.664 171.826 36.032 171.698 36.336C171.57 36.656 171.41 36.912 171.218 37.104C171.026 37.328 170.802 37.472 170.562 37.6C170.322 37.712 170.082 37.808 169.858 37.856C169.634 37.92 169.426 37.968 169.234 37.984C169.026 38 168.882 38 168.77 38H164.322V29.488H166.53V32.448ZM175.074 38H172.866V29.488H175.074V38ZM168.146 36.336C168.322 36.336 168.498 36.32 168.658 36.288C168.834 36.272 168.978 36.208 169.122 36.128C169.266 36.048 169.362 35.936 169.458 35.792C169.538 35.648 169.586 35.456 169.586 35.232C169.586 35.008 169.538 34.832 169.458 34.672C169.362 34.528 169.25 34.416 169.106 34.336C168.946 34.256 168.786 34.192 168.594 34.16C168.386 34.128 168.178 34.112 167.954 34.112H166.53V36.336H168.146ZM178.765 34.432C178.765 34.512 178.781 34.608 178.797 34.736C178.797 34.88 178.829 35.008 178.877 35.168C178.925 35.312 179.005 35.472 179.085 35.616C179.165 35.776 179.293 35.92 179.453 36.032C179.597 36.16 179.773 36.272 179.997 36.336C180.205 36.416 180.461 36.464 180.765 36.464C180.925 36.464 181.085 36.432 181.229 36.384C181.389 36.352 181.517 36.288 181.661 36.192C181.789 36.112 181.901 36 181.997 35.888C182.093 35.76 182.157 35.632 182.205 35.472H184.493C184.493 35.632 184.461 35.808 184.397 36C184.317 36.208 184.221 36.4 184.093 36.608C183.949 36.816 183.773 37.024 183.565 37.216C183.357 37.408 183.117 37.6 182.813 37.744C182.525 37.904 182.205 38.016 181.853 38.112C181.485 38.208 181.085 38.256 180.637 38.256C180.077 38.256 179.533 38.176 179.053 38C178.541 37.84 178.109 37.568 177.741 37.2C177.373 36.832 177.069 36.352 176.861 35.776C176.653 35.184 176.541 34.48 176.541 33.648C176.541 33.072 176.621 32.512 176.781 31.984C176.925 31.44 177.165 30.976 177.485 30.576C177.805 30.16 178.237 29.84 178.749 29.6C179.245 29.344 179.853 29.232 180.573 29.232C181.325 29.232 181.965 29.36 182.477 29.6C182.989 29.856 183.405 30.208 183.725 30.656C184.045 31.104 184.269 31.664 184.397 32.304C184.525 32.944 184.605 33.648 184.605 34.432H178.765ZM182.301 32.96C182.301 32.592 182.253 32.272 182.141 32.016C182.029 31.776 181.885 31.568 181.725 31.424C181.549 31.28 181.357 31.168 181.149 31.104C180.957 31.056 180.765 31.024 180.573 31.024C180.397 31.024 180.189 31.056 179.997 31.104C179.789 31.168 179.597 31.28 179.437 31.424C179.261 31.568 179.117 31.776 179.021 32.016C178.893 32.272 178.845 32.592 178.845 32.96H182.301ZM192.573 30.704H192.605C192.749 30.448 192.909 30.224 193.085 30.032C193.245 29.856 193.437 29.696 193.629 29.584C193.837 29.472 194.061 29.376 194.317 29.328C194.557 29.264 194.829 29.232 195.149 29.232C195.405 29.232 195.677 29.264 195.949 29.328C196.221 29.392 196.493 29.488 196.765 29.632C197.021 29.76 197.277 29.952 197.501 30.16C197.741 30.384 197.949 30.672 198.125 30.992C198.301 31.312 198.445 31.68 198.541 32.112C198.653 32.544 198.701 33.024 198.701 33.584C198.701 34.272 198.637 34.912 198.477 35.472C198.333 36.048 198.109 36.544 197.805 36.96C197.501 37.36 197.133 37.68 196.685 37.92C196.221 38.144 195.693 38.256 195.069 38.256C194.861 38.256 194.637 38.24 194.429 38.192C194.205 38.16 193.997 38.08 193.789 37.984C193.565 37.888 193.373 37.744 193.197 37.584C193.005 37.408 192.845 37.2 192.701 36.944H192.669V41.296H190.461V29.488H192.573V30.704ZM194.493 31.216C194.141 31.216 193.837 31.296 193.597 31.44C193.357 31.6 193.165 31.792 193.021 32.032C192.861 32.272 192.765 32.544 192.685 32.848C192.621 33.152 192.589 33.44 192.589 33.744C192.589 33.904 192.589 34.08 192.621 34.272C192.637 34.464 192.669 34.656 192.717 34.848C192.781 35.04 192.845 35.232 192.941 35.408C193.021 35.6 193.133 35.76 193.277 35.904C193.421 36.032 193.597 36.144 193.789 36.24C193.981 36.32 194.221 36.368 194.493 36.368C194.765 36.368 195.005 36.32 195.197 36.24C195.389 36.144 195.565 36.032 195.709 35.904C195.837 35.76 195.965 35.6 196.061 35.408C196.141 35.232 196.205 35.04 196.269 34.848C196.317 34.656 196.349 34.464 196.381 34.272C196.397 34.08 196.397 33.904 196.397 33.744C196.397 33.44 196.365 33.152 196.301 32.848C196.221 32.544 196.125 32.272 195.981 32.032C195.821 31.792 195.629 31.6 195.389 31.44C195.133 31.296 194.845 31.216 194.493 31.216ZM201.89 34.432C201.89 34.512 201.906 34.608 201.922 34.736C201.922 34.88 201.954 35.008 202.002 35.168C202.05 35.312 202.13 35.472 202.21 35.616C202.29 35.776 202.418 35.92 202.578 36.032C202.722 36.16 202.898 36.272 203.122 36.336C203.33 36.416 203.586 36.464 203.89 36.464C204.05 36.464 204.21 36.432 204.354 36.384C204.514 36.352 204.642 36.288 204.786 36.192C204.914 36.112 205.026 36 205.122 35.888C205.218 35.76 205.282 35.632 205.33 35.472H207.618C207.618 35.632 207.586 35.808 207.522 36C207.442 36.208 207.346 36.4 207.218 36.608C207.074 36.816 206.898 37.024 206.69 37.216C206.482 37.408 206.242 37.6 205.938 37.744C205.65 37.904 205.33 38.016 204.978 38.112C204.61 38.208 204.21 38.256 203.762 38.256C203.202 38.256 202.658 38.176 202.178 38C201.666 37.84 201.234 37.568 200.866 37.2C200.498 36.832 200.194 36.352 199.986 35.776C199.778 35.184 199.666 34.48 199.666 33.648C199.666 33.072 199.746 32.512 199.906 31.984C200.05 31.44 200.29 30.976 200.61 30.576C200.93 30.16 201.362 29.84 201.874 29.6C202.37 29.344 202.978 29.232 203.698 29.232C204.45 29.232 205.09 29.36 205.602 29.6C206.114 29.856 206.53 30.208 206.85 30.656C207.17 31.104 207.394 31.664 207.522 32.304C207.65 32.944 207.73 33.648 207.73 34.432H201.89ZM205.426 32.96C205.426 32.592 205.378 32.272 205.266 32.016C205.154 31.776 205.01 31.568 204.85 31.424C204.674 31.28 204.482 31.168 204.274 31.104C204.082 31.056 203.89 31.024 203.698 31.024C203.522 31.024 203.314 31.056 203.122 31.104C202.914 31.168 202.722 31.28 202.562 31.424C202.386 31.568 202.242 31.776 202.146 32.016C202.018 32.272 201.97 32.592 201.97 32.96H205.426ZM211.405 36.208H213.709V29.488H215.917V36.208H218.221V29.488H220.429V38H209.197V29.488H211.405V36.208ZM224.124 34.432C224.124 34.512 224.14 34.608 224.156 34.736C224.156 34.88 224.188 35.008 224.236 35.168C224.284 35.312 224.364 35.472 224.444 35.616C224.524 35.776 224.652 35.92 224.812 36.032C224.956 36.16 225.132 36.272 225.356 36.336C225.564 36.416 225.82 36.464 226.124 36.464C226.284 36.464 226.444 36.432 226.588 36.384C226.748 36.352 226.876 36.288 227.02 36.192C227.148 36.112 227.26 36 227.356 35.888C227.452 35.76 227.516 35.632 227.564 35.472H229.852C229.852 35.632 229.82 35.808 229.756 36C229.676 36.208 229.58 36.4 229.452 36.608C229.308 36.816 229.132 37.024 228.924 37.216C228.716 37.408 228.476 37.6 228.172 37.744C227.884 37.904 227.564 38.016 227.212 38.112C226.844 38.208 226.444 38.256 225.996 38.256C225.436 38.256 224.892 38.176 224.412 38C223.9 37.84 223.468 37.568 223.1 37.2C222.732 36.832 222.428 36.352 222.22 35.776C222.012 35.184 221.9 34.48 221.9 33.648C221.9 33.072 221.98 32.512 222.14 31.984C222.284 31.44 222.524 30.976 222.844 30.576C223.164 30.16 223.596 29.84 224.108 29.6C224.604 29.344 225.212 29.232 225.932 29.232C226.684 29.232 227.324 29.36 227.836 29.6C228.348 29.856 228.764 30.208 229.084 30.656C229.404 31.104 229.628 31.664 229.756 32.304C229.884 32.944 229.964 33.648 229.964 34.432H224.124ZM227.66 32.96C227.66 32.592 227.612 32.272 227.5 32.016C227.388 31.776 227.244 31.568 227.084 31.424C226.908 31.28 226.716 31.168 226.508 31.104C226.316 31.056 226.124 31.024 225.932 31.024C225.756 31.024 225.548 31.056 225.356 31.104C225.148 31.168 224.956 31.28 224.796 31.424C224.62 31.568 224.476 31.776 224.38 32.016C224.252 32.272 224.204 32.592 224.204 32.96H227.66ZM233.639 32.56H236.887V29.488H239.095V38H236.887V34.352H233.639V38H231.431V29.488H233.639V32.56ZM243.42 34.736H243.452L246.556 29.488H248.876V38H246.668V32.864H246.636L243.628 38H241.212V29.488H243.42V34.736ZM256.45 34.864H255.01C254.69 34.864 254.418 34.88 254.194 34.896C253.97 34.928 253.778 34.976 253.634 35.056C253.49 35.152 253.378 35.28 253.298 35.44C253.234 35.616 253.186 35.84 253.17 36.128L253.138 36.944L253.106 37.408C253.074 37.616 253.026 37.808 252.946 38H250.61C250.674 37.888 250.738 37.776 250.77 37.664C250.818 37.568 250.85 37.456 250.882 37.344L250.93 37.04C250.93 36.944 250.946 36.832 250.962 36.72L251.074 35.696C251.09 35.472 251.122 35.264 251.17 35.104C251.202 34.944 251.266 34.784 251.346 34.672C251.426 34.544 251.538 34.432 251.682 34.352C251.842 34.272 252.034 34.176 252.274 34.112L252.018 34.016C251.922 33.984 251.81 33.936 251.714 33.856C251.602 33.792 251.49 33.712 251.394 33.616C251.282 33.504 251.186 33.376 251.09 33.232C251.01 33.136 250.962 33.024 250.93 32.912L250.834 32.592C250.818 32.48 250.802 32.384 250.802 32.288C250.786 32.192 250.786 32.112 250.786 32.048C250.786 31.744 250.834 31.472 250.898 31.232C250.962 31.008 251.058 30.8 251.186 30.624C251.298 30.432 251.426 30.288 251.57 30.16C251.714 30.032 251.874 29.936 252.018 29.856C252.178 29.76 252.37 29.696 252.578 29.648C252.77 29.6 252.962 29.552 253.17 29.536C253.362 29.504 253.538 29.504 253.698 29.488H254.098H258.674V38H256.45V34.864ZM254.674 31.152C254.482 31.152 254.29 31.152 254.114 31.168C253.922 31.168 253.762 31.216 253.602 31.28C253.458 31.344 253.33 31.456 253.25 31.616C253.154 31.76 253.106 31.968 253.106 32.24C253.106 32.512 253.154 32.704 253.25 32.848C253.33 32.992 253.458 33.088 253.602 33.168C253.746 33.232 253.906 33.28 254.082 33.28C254.258 33.296 254.434 33.296 254.61 33.296H256.45V31.152H254.674Z" fill="#FBFDFD"/>
<path d="M73.724 54.792C73.712 54.948 73.676 55.104 73.64 55.284C73.592 55.476 73.52 55.644 73.436 55.824C73.352 56.004 73.244 56.172 73.112 56.34C72.98 56.496 72.812 56.652 72.62 56.772C72.428 56.904 72.2 57 71.936 57.084C71.672 57.156 71.372 57.192 71.036 57.192C70.856 57.192 70.664 57.168 70.46 57.132C70.244 57.084 70.052 57 69.86 56.904C69.668 56.796 69.488 56.664 69.308 56.496C69.14 56.328 68.984 56.124 68.852 55.872C68.72 55.632 68.612 55.344 68.54 55.008C68.468 54.696 68.42 54.312 68.42 53.892C68.42 53.376 68.504 52.908 68.648 52.488C68.792 52.068 68.996 51.72 69.248 51.432C69.488 51.144 69.776 50.928 70.112 50.76C70.436 50.604 70.784 50.532 71.144 50.532C71.48 50.532 71.768 50.568 72.02 50.64C72.272 50.712 72.488 50.796 72.68 50.916C72.86 51.036 73.016 51.168 73.148 51.324C73.28 51.48 73.388 51.636 73.472 51.804C73.544 51.984 73.604 52.152 73.652 52.332C73.688 52.5 73.712 52.68 73.724 52.836H72.716C72.668 52.404 72.512 52.068 72.272 51.828C72.032 51.588 71.696 51.468 71.264 51.468C70.964 51.468 70.712 51.528 70.496 51.648C70.268 51.768 70.088 51.936 69.944 52.152C69.788 52.368 69.68 52.632 69.608 52.944C69.536 53.256 69.5 53.58 69.5 53.952C69.5 54.372 69.536 54.72 69.62 55.02C69.692 55.32 69.8 55.56 69.956 55.752C70.1 55.956 70.268 56.1 70.484 56.184C70.688 56.28 70.928 56.328 71.192 56.328C71.384 56.328 71.552 56.292 71.732 56.22C71.9 56.16 72.044 56.052 72.176 55.92C72.308 55.788 72.428 55.632 72.512 55.44C72.608 55.248 72.68 55.032 72.716 54.792H73.724ZM74.3 50.724H79.7V51.66H77.54V57H76.46V51.66H74.3V50.724ZM81.812 51.588H81.836C81.908 51.444 81.992 51.3 82.1 51.18C82.208 51.048 82.34 50.94 82.496 50.832C82.64 50.748 82.808 50.664 83.012 50.616C83.204 50.556 83.432 50.532 83.684 50.532C84.02 50.532 84.344 50.592 84.656 50.724C84.968 50.856 85.232 51.048 85.472 51.3C85.712 51.564 85.904 51.888 86.036 52.272C86.18 52.668 86.252 53.112 86.252 53.628C86.252 54.276 86.192 54.816 86.06 55.272C85.928 55.728 85.748 56.088 85.496 56.376C85.256 56.664 84.968 56.868 84.632 57C84.284 57.132 83.912 57.192 83.492 57.192C83.288 57.192 83.096 57.168 82.916 57.108C82.736 57.06 82.568 56.988 82.436 56.892C82.28 56.808 82.16 56.712 82.064 56.604C81.968 56.496 81.884 56.388 81.836 56.292H81.812V59.472H80.732V50.724H81.812V51.588ZM81.788 53.892C81.788 54.24 81.824 54.54 81.884 54.828C81.956 55.116 82.052 55.368 82.196 55.584C82.328 55.788 82.508 55.956 82.724 56.076C82.928 56.196 83.168 56.256 83.456 56.256C83.756 56.256 84.008 56.196 84.236 56.076C84.452 55.956 84.62 55.788 84.764 55.584C84.908 55.368 85.004 55.116 85.076 54.828C85.136 54.54 85.172 54.24 85.172 53.892C85.172 53.532 85.136 53.22 85.076 52.92C85.004 52.62 84.908 52.368 84.764 52.152C84.62 51.936 84.452 51.768 84.236 51.648C84.008 51.528 83.756 51.468 83.456 51.468C83.168 51.468 82.928 51.528 82.724 51.648C82.508 51.768 82.328 51.936 82.196 52.152C82.052 52.368 81.956 52.62 81.884 52.92C81.824 53.22 81.788 53.532 81.788 53.892ZM92.92 53.856C92.92 54.372 92.86 54.828 92.716 55.248C92.584 55.656 92.404 56.004 92.152 56.292C91.9 56.58 91.588 56.808 91.228 56.964C90.868 57.12 90.46 57.192 90.004 57.192C89.548 57.192 89.14 57.12 88.78 56.964C88.42 56.808 88.12 56.58 87.868 56.292C87.616 56.004 87.424 55.656 87.292 55.248C87.16 54.828 87.088 54.372 87.088 53.856C87.088 53.34 87.16 52.884 87.292 52.476C87.424 52.068 87.616 51.72 87.868 51.432C88.12 51.144 88.42 50.916 88.78 50.76C89.14 50.604 89.548 50.532 90.004 50.532C90.46 50.532 90.868 50.604 91.228 50.76C91.588 50.916 91.9 51.144 92.152 51.432C92.404 51.72 92.584 52.068 92.716 52.476C92.86 52.884 92.92 53.34 92.92 53.856ZM91.84 53.856C91.84 53.508 91.804 53.184 91.72 52.896C91.648 52.608 91.528 52.356 91.372 52.14C91.216 51.936 91.024 51.768 90.796 51.648C90.568 51.528 90.304 51.468 90.004 51.468C89.704 51.468 89.44 51.528 89.212 51.648C88.984 51.768 88.792 51.936 88.636 52.14C88.48 52.356 88.36 52.608 88.288 52.896C88.204 53.184 88.168 53.508 88.168 53.856C88.168 54.204 88.204 54.528 88.288 54.816C88.36 55.116 88.48 55.368 88.636 55.584C88.792 55.788 88.984 55.956 89.212 56.076C89.44 56.196 89.704 56.256 90.004 56.256C90.304 56.256 90.568 56.196 90.796 56.076C91.024 55.956 91.216 55.788 91.372 55.584C91.528 55.368 91.648 55.116 91.72 54.816C91.804 54.528 91.84 54.204 91.84 53.856ZM95.2079 55.536H95.2319L98.3159 50.724H99.5519V57H98.4599V52.188H98.4359L95.3639 57H94.1279V50.724H95.2079V55.536ZM100.632 50.724H106.032V51.66H103.872V57H102.792V51.66H100.632V50.724ZM112.464 54.996C112.428 55.272 112.332 55.536 112.188 55.8C112.044 56.064 111.852 56.292 111.612 56.496C111.384 56.712 111.108 56.88 110.796 57C110.472 57.132 110.112 57.192 109.728 57.192C109.308 57.192 108.924 57.12 108.564 56.988C108.204 56.844 107.892 56.64 107.64 56.352C107.376 56.076 107.172 55.728 107.028 55.308C106.872 54.888 106.8 54.384 106.8 53.82C106.8 53.436 106.836 53.088 106.932 52.776C107.016 52.464 107.124 52.188 107.268 51.948C107.412 51.708 107.58 51.492 107.76 51.312C107.952 51.132 108.144 50.988 108.36 50.868C108.564 50.76 108.78 50.676 108.996 50.616C109.212 50.556 109.428 50.532 109.632 50.532C110.064 50.532 110.448 50.592 110.808 50.724C111.168 50.856 111.468 51.048 111.732 51.312C111.984 51.576 112.176 51.912 112.332 52.296C112.464 52.704 112.536 53.172 112.536 53.7V54.24H107.952C107.952 54.54 108 54.816 108.084 55.068C108.156 55.32 108.276 55.524 108.432 55.704C108.576 55.884 108.768 56.016 108.984 56.112C109.2 56.208 109.44 56.256 109.716 56.256C109.992 56.256 110.232 56.22 110.424 56.136C110.616 56.064 110.772 55.968 110.904 55.836C111.036 55.716 111.132 55.584 111.216 55.44C111.3 55.284 111.36 55.14 111.42 54.996H112.464ZM111.456 53.376C111.444 53.076 111.396 52.8 111.324 52.56C111.228 52.32 111.108 52.128 110.964 51.96C110.82 51.804 110.628 51.684 110.424 51.588C110.208 51.504 109.98 51.468 109.716 51.468C109.476 51.468 109.248 51.516 109.044 51.612C108.828 51.708 108.648 51.84 108.492 52.008C108.336 52.176 108.216 52.38 108.12 52.608C108.024 52.848 107.964 53.1 107.952 53.376H111.456ZM115.568 53.172C115.544 53.928 115.484 54.564 115.388 55.068C115.292 55.584 115.172 55.992 115.004 56.304C114.848 56.616 114.644 56.832 114.416 56.964C114.188 57.084 113.924 57.156 113.624 57.156C113.516 57.156 113.42 57.132 113.348 57.108C113.264 57.072 113.204 57.036 113.156 57V56.052C113.312 56.112 113.444 56.136 113.564 56.136C113.648 56.136 113.732 56.124 113.804 56.1C113.876 56.064 113.948 56.016 114.02 55.944C114.08 55.86 114.152 55.752 114.212 55.608C114.26 55.464 114.32 55.272 114.368 55.044C114.404 54.816 114.452 54.54 114.476 54.216C114.5 53.88 114.524 53.496 114.536 53.04L114.584 50.724H119.096V57H118.016V51.66H115.616L115.568 53.172ZM121.763 53.088H123.503C123.851 53.088 124.151 53.136 124.415 53.22C124.691 53.316 124.919 53.448 125.111 53.616C125.291 53.784 125.435 53.988 125.543 54.228C125.639 54.468 125.687 54.744 125.687 55.044C125.687 55.344 125.639 55.62 125.543 55.86C125.435 56.1 125.291 56.304 125.111 56.472C124.919 56.64 124.691 56.772 124.415 56.868C124.151 56.952 123.851 57 123.503 57H120.683V50.724H121.763V53.088ZM123.287 56.136C123.479 56.136 123.647 56.124 123.815 56.076C123.971 56.04 124.115 55.98 124.235 55.884C124.355 55.8 124.439 55.692 124.511 55.548C124.571 55.416 124.607 55.248 124.607 55.044C124.607 54.852 124.571 54.684 124.511 54.54C124.439 54.408 124.343 54.288 124.223 54.204C124.103 54.12 123.947 54.048 123.779 54.012C123.599 53.976 123.407 53.952 123.191 53.952H121.763V56.136H123.287ZM127.763 53.256H130.691V50.724H131.771V57H130.691V54.192H127.763V57H126.683V50.724H127.763V53.256ZM133.339 52.608C133.351 52.224 133.423 51.9 133.555 51.636C133.687 51.372 133.867 51.156 134.095 51C134.323 50.832 134.587 50.712 134.899 50.64C135.211 50.568 135.547 50.532 135.919 50.532C136.219 50.532 136.519 50.556 136.807 50.628C137.095 50.688 137.347 50.784 137.563 50.928C137.791 51.06 137.971 51.252 138.103 51.468C138.247 51.684 138.307 51.96 138.307 52.272V55.92C138.307 56.016 138.331 56.112 138.391 56.184C138.439 56.256 138.535 56.292 138.655 56.292C138.703 56.292 138.763 56.28 138.823 56.268C138.883 56.268 138.943 56.256 139.003 56.244V56.988C138.919 57.012 138.823 57.036 138.739 57.048C138.655 57.072 138.547 57.084 138.427 57.084C138.235 57.084 138.079 57.06 137.947 57.036C137.803 57 137.695 56.952 137.599 56.88C137.515 56.808 137.443 56.712 137.383 56.592C137.335 56.484 137.311 56.34 137.287 56.172C137.155 56.316 137.011 56.448 136.867 56.568C136.723 56.7 136.555 56.808 136.363 56.892C136.183 56.988 135.979 57.06 135.751 57.12C135.523 57.168 135.271 57.192 134.983 57.192C134.743 57.192 134.515 57.156 134.287 57.072C134.059 57 133.843 56.88 133.663 56.736C133.483 56.58 133.339 56.388 133.231 56.16C133.111 55.944 133.063 55.68 133.063 55.38C133.063 55.056 133.111 54.78 133.231 54.54C133.339 54.3 133.483 54.108 133.651 53.952C133.831 53.784 134.035 53.676 134.263 53.58C134.491 53.496 134.719 53.448 134.947 53.412L136.711 53.196C136.879 53.184 137.011 53.112 137.107 53.004C137.203 52.884 137.251 52.716 137.251 52.464C137.251 52.08 137.131 51.816 136.879 51.648C136.627 51.48 136.279 51.396 135.811 51.396C135.331 51.396 134.983 51.504 134.743 51.696C134.515 51.9 134.371 52.2 134.347 52.608H133.339ZM137.227 53.808C137.143 53.868 137.035 53.916 136.915 53.964C136.783 54 136.639 54.036 136.495 54.06C136.339 54.096 136.171 54.12 136.003 54.132L135.487 54.204C135.295 54.24 135.115 54.264 134.947 54.324C134.791 54.372 134.647 54.444 134.527 54.516C134.395 54.6 134.311 54.708 134.239 54.816C134.179 54.936 134.143 55.068 134.143 55.224C134.143 55.404 134.167 55.56 134.227 55.704C134.287 55.836 134.359 55.956 134.467 56.04C134.563 56.136 134.683 56.208 134.815 56.256C134.959 56.304 135.115 56.328 135.283 56.328C135.391 56.328 135.511 56.316 135.643 56.28C135.787 56.256 135.919 56.232 136.063 56.172C136.219 56.124 136.351 56.052 136.495 55.98C136.627 55.896 136.759 55.8 136.867 55.692C136.975 55.572 137.059 55.452 137.131 55.296C137.191 55.152 137.227 54.996 137.227 54.816V53.808ZM144.039 54.516H142.647C142.395 54.516 142.179 54.516 141.999 54.528C141.807 54.54 141.651 54.576 141.519 54.636C141.399 54.708 141.291 54.792 141.231 54.936C141.147 55.068 141.099 55.248 141.087 55.5L141.039 56.172C141.027 56.196 141.027 56.232 141.027 56.292C141.015 56.352 141.015 56.424 141.003 56.496C140.991 56.58 140.979 56.664 140.955 56.748C140.943 56.844 140.919 56.928 140.883 57H139.695C139.731 56.964 139.743 56.928 139.779 56.892C139.803 56.856 139.827 56.796 139.851 56.736C139.875 56.676 139.899 56.58 139.923 56.484C139.947 56.376 139.971 56.244 139.983 56.076L140.055 55.272C140.079 55.056 140.103 54.888 140.139 54.756C140.175 54.624 140.223 54.504 140.283 54.42C140.343 54.336 140.415 54.264 140.511 54.204C140.619 54.156 140.739 54.096 140.883 54.036C140.211 53.796 139.875 53.292 139.875 52.548C139.875 52.356 139.899 52.188 139.947 52.02C139.995 51.864 140.055 51.732 140.139 51.6C140.211 51.48 140.295 51.372 140.391 51.264C140.487 51.18 140.583 51.096 140.679 51.036C140.799 50.964 140.931 50.892 141.075 50.856C141.231 50.808 141.375 50.784 141.519 50.76C141.663 50.748 141.807 50.736 141.951 50.736C142.083 50.724 142.215 50.724 142.335 50.724H145.119V57H144.039V54.516ZM142.035 51.672C141.939 51.684 141.843 51.684 141.771 51.696C141.699 51.696 141.627 51.72 141.555 51.732C141.495 51.756 141.435 51.78 141.363 51.816C141.231 51.888 141.123 52.008 141.051 52.164C140.979 52.308 140.943 52.476 140.943 52.644C140.943 52.812 140.967 52.956 141.015 53.064C141.075 53.184 141.135 53.28 141.231 53.352C141.303 53.436 141.399 53.484 141.507 53.52C141.603 53.568 141.711 53.592 141.819 53.616L142.131 53.652C142.227 53.652 142.323 53.652 142.395 53.652H144.039V51.672H142.035ZM151.13 53.76L154.298 50.724H155.714L152.762 53.496L155.762 57H154.37L151.922 54.156L151.13 54.816V57H150.05V50.724H151.13V53.76ZM162.084 53.856C162.084 54.372 162.024 54.828 161.88 55.248C161.748 55.656 161.568 56.004 161.316 56.292C161.064 56.58 160.752 56.808 160.392 56.964C160.032 57.12 159.624 57.192 159.168 57.192C158.712 57.192 158.304 57.12 157.944 56.964C157.584 56.808 157.284 56.58 157.032 56.292C156.78 56.004 156.588 55.656 156.456 55.248C156.324 54.828 156.252 54.372 156.252 53.856C156.252 53.34 156.324 52.884 156.456 52.476C156.588 52.068 156.78 51.72 157.032 51.432C157.284 51.144 157.584 50.916 157.944 50.76C158.304 50.604 158.712 50.532 159.168 50.532C159.624 50.532 160.032 50.604 160.392 50.76C160.752 50.916 161.064 51.144 161.316 51.432C161.568 51.72 161.748 52.068 161.88 52.476C162.024 52.884 162.084 53.34 162.084 53.856ZM161.004 53.856C161.004 53.508 160.968 53.184 160.884 52.896C160.812 52.608 160.692 52.356 160.536 52.14C160.38 51.936 160.188 51.768 159.96 51.648C159.732 51.528 159.468 51.468 159.168 51.468C158.868 51.468 158.604 51.528 158.376 51.648C158.148 51.768 157.956 51.936 157.8 52.14C157.644 52.356 157.524 52.608 157.452 52.896C157.368 53.184 157.332 53.508 157.332 53.856C157.332 54.204 157.368 54.528 157.452 54.816C157.524 55.116 157.644 55.368 157.8 55.584C157.956 55.788 158.148 55.956 158.376 56.076C158.604 56.196 158.868 56.256 159.168 56.256C159.468 56.256 159.732 56.196 159.96 56.076C160.188 55.956 160.38 55.788 160.536 55.584C160.692 55.368 160.812 55.116 160.884 54.816C160.968 54.528 161.004 54.204 161.004 53.856ZM166.52 55.872H166.544L168.224 50.724H169.7V57H168.692V51.948H168.668L167.012 57H165.98L164.324 51.948H164.3V57H163.292V50.724H164.864L166.52 55.872ZM172.364 57H171.284V50.724H176.372V57H175.292V51.66H172.364V57ZM177.94 52.608C177.952 52.224 178.024 51.9 178.156 51.636C178.288 51.372 178.468 51.156 178.696 51C178.924 50.832 179.188 50.712 179.5 50.64C179.812 50.568 180.148 50.532 180.52 50.532C180.82 50.532 181.12 50.556 181.408 50.628C181.696 50.688 181.948 50.784 182.164 50.928C182.392 51.06 182.572 51.252 182.704 51.468C182.848 51.684 182.908 51.96 182.908 52.272V55.92C182.908 56.016 182.932 56.112 182.992 56.184C183.04 56.256 183.136 56.292 183.256 56.292C183.304 56.292 183.364 56.28 183.424 56.268C183.484 56.268 183.544 56.256 183.604 56.244V56.988C183.52 57.012 183.424 57.036 183.34 57.048C183.256 57.072 183.148 57.084 183.028 57.084C182.836 57.084 182.68 57.06 182.548 57.036C182.404 57 182.296 56.952 182.2 56.88C182.116 56.808 182.044 56.712 181.984 56.592C181.936 56.484 181.912 56.34 181.888 56.172C181.756 56.316 181.612 56.448 181.468 56.568C181.324 56.7 181.156 56.808 180.964 56.892C180.784 56.988 180.58 57.06 180.352 57.12C180.124 57.168 179.872 57.192 179.584 57.192C179.344 57.192 179.116 57.156 178.888 57.072C178.66 57 178.444 56.88 178.264 56.736C178.084 56.58 177.94 56.388 177.832 56.16C177.712 55.944 177.664 55.68 177.664 55.38C177.664 55.056 177.712 54.78 177.832 54.54C177.94 54.3 178.084 54.108 178.252 53.952C178.432 53.784 178.636 53.676 178.864 53.58C179.092 53.496 179.32 53.448 179.548 53.412L181.312 53.196C181.48 53.184 181.612 53.112 181.708 53.004C181.804 52.884 181.852 52.716 181.852 52.464C181.852 52.08 181.732 51.816 181.48 51.648C181.228 51.48 180.88 51.396 180.412 51.396C179.932 51.396 179.584 51.504 179.344 51.696C179.116 51.9 178.972 52.2 178.948 52.608H177.94ZM181.828 53.808C181.744 53.868 181.636 53.916 181.516 53.964C181.384 54 181.24 54.036 181.096 54.06C180.94 54.096 180.772 54.12 180.604 54.132L180.088 54.204C179.896 54.24 179.716 54.264 179.548 54.324C179.392 54.372 179.248 54.444 179.128 54.516C178.996 54.6 178.912 54.708 178.84 54.816C178.78 54.936 178.744 55.068 178.744 55.224C178.744 55.404 178.768 55.56 178.828 55.704C178.888 55.836 178.96 55.956 179.068 56.04C179.164 56.136 179.284 56.208 179.416 56.256C179.56 56.304 179.716 56.328 179.884 56.328C179.992 56.328 180.112 56.316 180.244 56.28C180.388 56.256 180.52 56.232 180.664 56.172C180.82 56.124 180.952 56.052 181.096 55.98C181.228 55.896 181.36 55.8 181.468 55.692C181.576 55.572 181.66 55.452 181.732 55.296C181.792 55.152 181.828 54.996 181.828 54.816V53.808ZM185.7 53.256H188.628V50.724H189.708V57H188.628V54.192H185.7V57H184.62V50.724H185.7V53.256ZM192.368 55.536H192.392L195.476 50.724H196.712V57H195.62V52.188H195.596L192.524 57H191.288V50.724H192.368V55.536ZM202.304 54.516H200.912C200.66 54.516 200.444 54.516 200.264 54.528C200.072 54.54 199.916 54.576 199.784 54.636C199.664 54.708 199.556 54.792 199.496 54.936C199.412 55.068 199.364 55.248 199.352 55.5L199.304 56.172C199.292 56.196 199.292 56.232 199.292 56.292C199.28 56.352 199.28 56.424 199.268 56.496C199.256 56.58 199.244 56.664 199.22 56.748C199.208 56.844 199.184 56.928 199.148 57H197.96C197.996 56.964 198.008 56.928 198.044 56.892C198.068 56.856 198.092 56.796 198.116 56.736C198.14 56.676 198.164 56.58 198.188 56.484C198.212 56.376 198.236 56.244 198.248 56.076L198.32 55.272C198.344 55.056 198.368 54.888 198.404 54.756C198.44 54.624 198.488 54.504 198.548 54.42C198.608 54.336 198.68 54.264 198.776 54.204C198.884 54.156 199.004 54.096 199.148 54.036C198.476 53.796 198.14 53.292 198.14 52.548C198.14 52.356 198.164 52.188 198.212 52.02C198.26 51.864 198.32 51.732 198.404 51.6C198.476 51.48 198.56 51.372 198.656 51.264C198.752 51.18 198.848 51.096 198.944 51.036C199.064 50.964 199.196 50.892 199.34 50.856C199.496 50.808 199.64 50.784 199.784 50.76C199.928 50.748 200.072 50.736 200.216 50.736C200.348 50.724 200.48 50.724 200.6 50.724H203.384V57H202.304V54.516ZM200.3 51.672C200.204 51.684 200.108 51.684 200.036 51.696C199.964 51.696 199.892 51.72 199.82 51.732C199.76 51.756 199.7 51.78 199.628 51.816C199.496 51.888 199.388 52.008 199.316 52.164C199.244 52.308 199.208 52.476 199.208 52.644C199.208 52.812 199.232 52.956 199.28 53.064C199.34 53.184 199.4 53.28 199.496 53.352C199.568 53.436 199.664 53.484 199.772 53.52C199.868 53.568 199.976 53.592 200.084 53.616L200.396 53.652C200.492 53.652 200.588 53.652 200.66 53.652H202.304V51.672H200.3Z" fill="#FBFDFD"/>
<path d="M5.33301 58.667H58.6663" stroke="#FBFBFB" stroke-width="2.5" stroke-miterlimit="10" stroke-linecap="round" stroke-linejoin="round"/>
<path d="M7.86621 58.667L7.99954 26.587C7.99954 24.9603 8.77288 23.4138 10.0529 22.4004L28.7197 7.86707C30.6397 6.37374 33.3327 6.37374 35.2794 7.86707L53.9463 22.3737C55.253 23.3871 55.9997 24.9336 55.9997 26.587V58.667" stroke="#FBFBFB" stroke-width="2.5" stroke-miterlimit="10" stroke-linejoin="round"/>
<path d="M34.6663 45.333H29.333C27.1197 45.333 25.333 47.1197 25.333 49.333V58.6663H38.6663V49.333C38.6663 47.1197 36.8797 45.333 34.6663 45.333Z" stroke="#FBFBFB" stroke-width="2.5" stroke-miterlimit="10" stroke-linejoin="round"/>
<path d="M25.333 36.6663H19.9997C18.533 36.6663 17.333 35.4663 17.333 33.9997V29.9997C17.333 28.533 18.533 27.333 19.9997 27.333H25.333C26.7997 27.333 27.9997 28.533 27.9997 29.9997V33.9997C27.9997 35.4663 26.7997 36.6663 25.333 36.6663Z" stroke="#FBFBFB" stroke-width="2.5" stroke-miterlimit="10" stroke-linejoin="round"/>
<path d="M44 36.6663H38.6667C37.2 36.6663 36 35.4663 36 33.9997V29.9997C36 28.533 37.2 27.333 38.6667 27.333H44C45.4667 27.333 46.6667 28.533 46.6667 29.9997V33.9997C46.6667 35.4663 45.4667 36.6663 44 36.6663Z" stroke="#FBFBFB" stroke-width="2.5" stroke-miterlimit="10" stroke-linejoin="round"/>
<path d="M50.6668 18.667L50.5869 10.667H38.8535" stroke="#FBFBFB" stroke-width="2.5" stroke-miterlimit="10" stroke-linecap="round" stroke-linejoin="round"/>
</svg>
